<svg width="337" height="247" viewBox="0 0 337 247" fill="none" xmlns="http://www.w3.org/2000/svg">
<path fill-rule="evenodd" clip-rule="evenodd" d="M311.492 123.273C314.525 127.267 313.934 142.142 311.597 145.941C308.575 142.117 303.134 122.768 295.41 120.922C293.172 128.494 295.204 136.816 298.577 143.898C303.266 153.749 303.145 152.988 310.836 153.994C308.661 160.644 306.21 178.774 301.227 182.185C301.082 170.787 302.27 160.948 294.571 149.924C286.394 159.412 289.38 178.819 297.648 187.959L299.555 185.028L300.724 187.959H302.263L311.662 163.348C320.026 158.583 322.461 161.631 329.116 151.695C332.729 146.304 338.098 138.031 336.782 131.679C324.584 129.804 317.898 149.424 313.654 151.591C312.421 133.43 313.983 133.344 324.203 123.676C330.042 118.153 334.504 98.8513 332.182 91.6506C318.883 92.0868 319.764 119.134 311.492 123.273Z" fill="#EFEFEF"/>
<path fill-rule="evenodd" clip-rule="evenodd" d="M33.0422 181.799L26.8892 155.615C37.4365 150.972 46.1725 129.033 40.7172 121.096C32.5361 124.069 26.3741 144.757 24.3821 146.23C22.8221 134.087 20.1325 95.3985 5.48377 91.7195C0.872619 98.1909 6.27188 115.87 11.1741 122.066C19.4636 132.546 23.9483 131.13 21.7611 150.8C18.7316 149.573 10.6932 129.219 0.312267 132.108C-1.78815 138.308 7.75229 154.529 13.4643 158.276C19.4492 162.201 23.2216 159.796 26.3144 166.973C29.5608 174.503 26.3144 174.043 33.0422 181.799Z" fill="#EFEFEF"/>
<path fill-rule="evenodd" clip-rule="evenodd" d="M34.5804 189.499C34.7287 189.351 35.0251 189.735 35.0269 189.946C35.0269 190.033 35.2149 190.135 35.2095 190.129C35.1733 190.093 32.5144 191.568 34.5804 189.499ZM34.5804 181.799H33.0422L34.6184 187.697C29.2933 184.257 21.7592 171.995 7.15393 172.822C6.51224 183.803 23.8795 200.815 37.1255 194.32C41.7222 199.062 43.0869 204.467 48.4266 207.982L37.657 187.959C48.0162 184.027 48.1681 157.841 42.1416 149.323C35.6686 160.063 34.5804 168.285 34.5804 181.799Z" fill="#EFEFEF"/>
<path fill-rule="evenodd" clip-rule="evenodd" d="M30.6634 88.8277C40.9612 90.7876 54.1928 76.2614 54.2398 67.2366C42.8592 68.3187 32.2776 79.2962 32.0625 79.4174C31.748 75.3764 33.9478 71.3789 35.6596 67.1714C39.8206 56.9431 36.7026 64.0913 37.1454 56.3604C37.6642 47.303 41.283 37.9923 34.4123 28.5078C28.2467 33.3288 25.6239 50.8138 27.229 58.1991C28.8251 65.5409 32.7855 64.4243 30.9436 73.2555C29.5102 80.1377 25.7902 81.5004 30.6634 88.8277Z" fill="#EFEFEF"/>
<path fill-rule="evenodd" clip-rule="evenodd" d="M74.5787 232.624C64.5123 231.663 52.5262 229.645 45.3248 240.239C49.0592 245.706 58.5816 246.962 65.3727 246.634C75.7248 246.139 74.877 242.192 82.1272 237.277L103.258 242.108C100.711 236.967 84.8946 235.074 79.1953 231.084L76.1188 229.544L71.5022 227.273H70.0345L74.5787 232.624Z" fill="#EFEFEF"/>
<path fill-rule="evenodd" clip-rule="evenodd" d="M257.649 231.084C250.48 236.102 239.801 236.455 232.735 240.264C238.2 243.457 246.202 237.367 254.719 237.273C269.23 254.336 288.545 244.644 291.406 240.351C284.803 230.311 272.209 231.676 262.264 232.624L263.802 229.544H259.188L257.649 231.084Z" fill="#EFEFEF"/>
<path fill-rule="evenodd" clip-rule="evenodd" d="M70.0344 227.273V226.464C62.2311 221.456 56.5824 213.905 49.9648 209.522V212.602C39.6417 210.101 31.3033 204.174 20.9657 211.55C22.184 216.907 31.3196 221.113 36.6122 222.911C51.3892 227.939 47.0528 223.621 57.5368 220.166C61.4195 222.794 65.7631 227.146 70.0344 227.273Z" fill="#EFEFEF"/>
<path fill-rule="evenodd" clip-rule="evenodd" d="M290.352 211.062C290.352 213.378 290.886 212.712 288.416 212.712L283.802 215.684V212.602C280.367 214.352 266.035 226.138 263.803 229.544L268.108 228.004L269.956 226.556C288.409 213.617 277.504 227.038 293.921 224.457C302.34 223.134 311.06 218.257 315.977 211.458C306.95 207.962 299.325 206.255 290.352 211.062Z" fill="#EFEFEF"/>
<path fill-rule="evenodd" clip-rule="evenodd" d="M302.263 187.96C300.921 192.252 302.066 192.252 300.724 187.96H297.648C297.04 194.945 294.716 195.812 291.332 201.822V203.047C296.782 200.363 295.229 198.861 299.712 194.386C313.338 200.468 329.581 184.469 329.689 172.822C312.676 171.859 311.304 181.508 302.263 187.96Z" fill="#EFEFEF"/>
<path fill-rule="evenodd" clip-rule="evenodd" d="M23.8126 114.031C23.8253 103.931 27.5092 92.7944 27.3718 91.1639C26.947 86.1638 26.7897 93.8422 25.5082 84.7359C24.0711 74.5149 26.1625 63.7564 16.454 57.3792C12.2296 63.5556 12.8279 81.4695 15.6424 88.3281C17.5349 92.9428 21.8948 94.6529 22.7353 99.2567C23.6554 104.293 20.042 108.14 23.8126 114.031Z" fill="#EFEFEF"/>
<path fill-rule="evenodd" clip-rule="evenodd" d="M311.492 92.4686C311.64 92.3202 311.937 92.7038 311.939 92.9156C311.939 93.0024 312.127 93.1038 312.121 93.0983C312.085 93.0621 309.426 94.537 311.492 92.4686ZM306.877 89.3885C311.873 96.924 310.317 103.654 313.927 112.435C315.212 104.648 311.058 104.892 313.757 97.9338C314.889 95.0202 318.786 92.8685 320.839 87.9643C324.069 80.2424 323.232 63.6695 319.304 56.7529C310.632 66.907 311.223 75.0306 311.611 87.9679L306.877 89.3885Z" fill="#EFEFEF"/>
<path fill-rule="evenodd" clip-rule="evenodd" d="M299.186 61.6663C300.516 67.2618 301.648 71.3372 305.339 75.5266C304.434 65.358 301.733 72.7849 306.539 64.531C313.838 51.999 306.72 33.2092 302.263 27.5178C296.755 36.3653 296.887 45.3557 298.946 54.424C300.457 61.08 301.194 58.199 299.186 61.6663Z" fill="#EFEFEF"/>
<path fill-rule="evenodd" clip-rule="evenodd" d="M288.527 44.8889C289.891 41.1591 292.196 28.9439 290.063 21.5351C288.209 15.0854 283.543 7.10295 278.052 3.35693C276.476 18.0207 277.726 24.9191 284.257 35.0171C288.736 41.9409 285.109 39.61 288.527 44.8889Z" fill="#EFEFEF"/>
<path fill-rule="evenodd" clip-rule="evenodd" d="M311.492 123.273C313.276 115.862 311.841 110.96 307.186 104.481C304.209 100.339 296.138 93.7283 291.493 92.4688C292.849 107.697 297.847 116.353 311.492 123.273Z" fill="#EFEFEF"/>
<path fill-rule="evenodd" clip-rule="evenodd" d="M76.1188 229.544L79.1953 231.084L82.5863 230.204C82.1218 221.2 82.0929 217.394 78.2301 210.488C75.5223 205.653 70.4249 199.961 65.4577 198.968C65.4215 202.929 67.1116 212.242 68.1582 215.952C70.6075 224.638 71.7661 222.978 76.1188 229.544Z" fill="#EFEFEF"/>
<path fill-rule="evenodd" clip-rule="evenodd" d="M279.48 212.678C292.625 202.182 289.575 182.769 285.349 175.395C275.971 187.209 275.086 199.152 279.48 212.678Z" fill="#EFEFEF"/>
<path fill-rule="evenodd" clip-rule="evenodd" d="M47.1721 38.1605C58.399 36.4811 59.4185 13.8657 59.0786 3.35693C51.0168 5.78913 40.869 28.9529 47.1721 38.1605Z" fill="#EFEFEF"/>
<path fill-rule="evenodd" clip-rule="evenodd" d="M23.8127 114.031L25.407 123.39C39.3706 114.988 42.3061 107.431 45.182 92.637C32.762 95.46 25.9474 110.967 23.8127 114.031Z" fill="#EFEFEF"/>
<path fill-rule="evenodd" clip-rule="evenodd" d="M57.2964 212.611C59.8957 198.537 61.6364 186.988 51.0349 175.873C47.8807 182.037 47.9204 188.499 48.3362 197.283C48.7302 205.604 50.9427 207.578 57.2964 212.611Z" fill="#EFEFEF"/>
<path fill-rule="evenodd" clip-rule="evenodd" d="M306.877 89.3886C308.342 83.3498 308.725 80.8361 305.339 75.5265L304.817 80.0037C293.662 68.9158 293.322 72.6618 282.598 66.2864C282.453 77.9642 294.217 89.3723 306.877 89.3886Z" fill="#EFEFEF"/>
<path fill-rule="evenodd" clip-rule="evenodd" d="M257.649 231.084L259.188 229.544L262.056 226.464L263.687 224.862C263.687 222.584 263.105 223.131 265.341 223.131C268.965 216.134 269.87 206.652 271.295 198.941C258.094 201.78 254.808 218.767 254.439 229.678L257.649 231.084Z" fill="#EFEFEF"/>
<path fill-rule="evenodd" clip-rule="evenodd" d="M66.9959 22.9359C74.3727 21.6691 77.0371 21.727 82.7436 15.9324C86.5396 12.0778 91.1055 5.49789 90.3734 1.17278C89.0575 1.01172 66.8603 7.11573 66.9959 22.9359Z" fill="#EFEFEF"/>
<path fill-rule="evenodd" clip-rule="evenodd" d="M269.722 23.0606C266.543 3.89803 257.1 9.01396 245.634 0C245.642 12.3076 258.19 22.3729 269.722 23.0606Z" fill="#EFEFEF"/>
<path fill-rule="evenodd" clip-rule="evenodd" d="M41.1348 59.7916C49.9124 65.9843 64.8991 56.7115 66.6543 47.9708C56.5553 47.4912 42.8447 48.501 41.1348 59.7916Z" fill="#EFEFEF"/>
<path fill-rule="evenodd" clip-rule="evenodd" d="M54.7802 38.0303C64.1037 45.3576 75.7573 40.4009 82.5719 32.4366C78.5952 30.1383 71.2401 28.6562 65.9547 29.8108C60.503 31.0015 57.3144 33.4247 54.7802 38.0303Z" fill="#EFEFEF"/>
<path fill-rule="evenodd" clip-rule="evenodd" d="M294.371 61.4654C294.889 47.4658 279.525 47.4604 268.584 47.9707C274.785 57.9275 281.269 62.1947 294.371 61.4654Z" fill="#EFEFEF"/>
<path fill-rule="evenodd" clip-rule="evenodd" d="M254.273 32.4365C261.156 41.0669 272.873 44.7658 282.063 38.0302C279.369 34.4236 275.496 31.0775 270.832 29.8632C266.096 28.629 257.895 30.3319 254.273 32.4365Z" fill="#EFEFEF"/>
<path fill-rule="evenodd" clip-rule="evenodd" d="M286.878 209.522C291.28 206.604 290.683 207.811 291.332 203.047H289.955L286.878 209.522Z" fill="#EFEFEF"/>
<path fill-rule="evenodd" clip-rule="evenodd" d="M46.8883 43.1842C46.4436 45.4952 49.1496 44.6591 48.9508 42.8748C48.6941 40.5566 47.5047 39.9829 46.8883 43.1842Z" fill="#EFEFEF"/>
<path fill-rule="evenodd" clip-rule="evenodd" d="M290.352 211.062C287.883 211.062 288.416 210.398 288.416 212.712C290.886 212.712 290.352 213.378 290.352 211.062Z" fill="#EFEFEF"/>
<path fill-rule="evenodd" clip-rule="evenodd" d="M265.341 223.13C263.105 223.13 263.687 222.584 263.687 224.862C265.948 224.946 265.341 225.467 265.341 223.13Z" fill="#EFEFEF"/>
<path fill-rule="evenodd" clip-rule="evenodd" d="M263.687 224.862L262.056 226.464C264.327 226.464 263.844 227.057 263.687 224.862Z" fill="#EFEFEF"/>
<path fill-rule="evenodd" clip-rule="evenodd" d="M45.35 47.8043L46.7563 47.408L45.8706 46.2715L45.35 47.8043Z" fill="#EFEFEF"/>
<path fill-rule="evenodd" clip-rule="evenodd" d="M299.186 61.6662L298.79 60.2583L297.655 61.145L299.186 61.6662Z" fill="#EFEFEF"/>
<path fill-rule="evenodd" clip-rule="evenodd" d="M45.35 47.8042L43.9437 48.2005L44.8294 49.337L45.35 47.8042Z" fill="#EFEFEF"/>
<path fill-rule="evenodd" clip-rule="evenodd" d="M291.332 203.047V201.822L289.955 203.047H291.332Z" fill="#EFEFEF"/>
<path fill-rule="evenodd" clip-rule="evenodd" d="M289.955 47.8042C290.103 47.9526 290.399 47.1491 290.399 47.359C290.399 47.4441 290.589 47.169 290.584 47.1744C290.548 47.2106 287.889 45.7358 289.955 47.8042Z" fill="#EFEFEF"/>
<path fill-rule="evenodd" clip-rule="evenodd" d="M71.5022 227.273L70.0344 226.464V227.273H71.5022Z" fill="#EFEFEF"/>
<path fill-rule="evenodd" clip-rule="evenodd" d="M49.9648 209.522L48.4266 207.982L49.9648 209.522Z" fill="#EFEFEF"/>
<path fill-rule="evenodd" clip-rule="evenodd" d="M286.878 209.522L285.34 211.062L286.878 209.522Z" fill="#EFEFEF"/>
<path fill-rule="evenodd" clip-rule="evenodd" d="M285.34 211.062L283.802 212.602L285.34 211.062Z" fill="#EFEFEF"/>
<path fill-rule="evenodd" clip-rule="evenodd" d="M269.956 226.556L268.108 228.004L269.956 226.556Z" fill="#EFEFEF"/>
</svg>
