<svg width="204" height="26" viewBox="0 0 204 26" fill="none" xmlns="http://www.w3.org/2000/svg">
<path d="M12.7314 0.416611C5.70027 0.416611 0 6.14343 0 13.2083C0 20.2732 5.70027 26 12.7314 26C19.7624 26 25.4627 20.2732 25.4627 13.2083C25.4627 6.14343 19.7624 0.416611 12.7314 0.416611ZM12.7314 7.258C15.979 7.258 18.6208 9.92736 18.6208 13.2083C18.6208 16.4893 15.979 19.1586 12.7314 19.1586C9.48371 19.1586 6.84187 16.4893 6.84187 13.2083C6.84187 9.92736 9.48371 7.258 12.7314 7.258Z" fill="#231F20"/>
<path d="M91.1316 6.6533V2.11973C91.1316 1.77701 91.4091 1.49945 91.7519 1.49945H108.721C109.064 1.49945 109.342 1.77701 109.342 2.11973V6.6533C109.342 6.99602 109.064 7.27357 108.721 7.27357H103.37V24.8209C103.37 25.1631 103.092 25.4412 102.749 25.4412H97.7244C97.3817 25.4412 97.1041 25.1631 97.1041 24.8209V7.27357H91.7519C91.4091 7.27357 91.1316 6.99602 91.1316 6.6533Z" fill="#231F20"/>
<path d="M119.772 12.4844H122.596C123.878 12.4844 124.791 12.2556 125.337 11.798C125.883 11.3404 126.157 10.6308 126.157 9.6678C126.157 8.65894 125.883 7.92523 125.337 7.46714C124.791 7.00954 123.878 6.78122 122.596 6.78122H119.772V12.4844ZM113.507 24.8209V2.11973C113.507 1.77749 113.784 1.49945 114.127 1.49945H123.451C124.804 1.49945 126.037 1.65295 127.153 1.95706C128.268 2.26261 129.229 2.73808 130.037 3.38345C130.843 4.02883 131.466 4.87405 131.906 5.91814C132.344 6.9632 132.564 8.21292 132.564 9.6678C132.564 11.4987 132.184 12.9951 131.425 14.157C130.782 15.1407 129.935 15.9097 128.884 16.4643C128.57 16.6299 128.461 17.0242 128.643 17.3283L132.959 24.5009C133.208 24.9145 132.911 25.4412 132.428 25.4412H126.905C126.684 25.4412 126.479 25.3229 126.368 25.1313L122.206 17.9346C122.095 17.743 121.89 17.6247 121.669 17.6247H119.772V24.8209C119.772 25.1631 119.495 25.4412 119.152 25.4412H114.127C113.784 25.4412 113.507 25.1631 113.507 24.8209Z" fill="#231F20"/>
<path d="M145.417 14.9138H149.898L148.268 9.05331C148.1 8.44945 147.245 8.44752 147.074 9.0509L145.417 14.9138ZM151.577 1.90831L159.814 24.609C159.96 25.0135 159.661 25.4412 159.231 25.4412H153.939C153.673 25.4412 153.437 25.2717 153.351 25.0202L151.785 20.4061H143.531L141.965 25.0202C141.879 25.2717 141.643 25.4412 141.377 25.4412H136.263C135.833 25.4412 135.533 25.0135 135.68 24.609L143.916 1.90831C144.005 1.66261 144.238 1.49945 144.499 1.49945H150.994C151.255 1.49945 151.489 1.66261 151.577 1.90831Z" fill="#231F20"/>
<path d="M176.58 18.3647C175.561 19.3736 173.828 19.8756 171.381 19.8756H168.572V7.05974H171.347C173.79 7.05974 175.527 7.56175 176.56 8.55612C177.593 9.55532 178.11 11.1917 178.11 13.4701C178.11 15.7243 177.598 17.3558 176.58 18.3647ZM181.19 4.33245C180.19 3.48289 179.003 2.82641 177.622 2.36301C177.618 2.35818 177.613 2.35336 177.608 2.35336H177.598C175.914 1.78377 173.949 1.49897 171.704 1.49897H162.926C162.584 1.49897 162.306 1.77653 162.306 2.11925V24.8209C162.306 25.1636 162.584 25.4412 162.926 25.4412H171.381C173.992 25.4412 176.223 25.0888 178.076 24.3889C178.081 24.384 178.091 24.384 178.095 24.3792C179.268 23.9351 180.287 23.351 181.156 22.6222C182.42 21.5602 185.022 19.0357 184.902 13.4845C184.781 7.93343 182.454 5.40888 181.19 4.33245Z" fill="#231F20"/>
<path d="M187.13 24.8209V2.11973C187.13 1.77749 187.407 1.49945 187.75 1.49945H203.38C203.722 1.49945 204 1.77749 204 2.11973V6.16094C204 6.50318 203.722 6.78122 203.38 6.78122H193.395V10.8654H200.432C200.775 10.8654 201.053 11.1429 201.053 11.4857V15.385C201.053 15.7277 200.775 16.0052 200.432 16.0052H193.395V20.1604H203.273C203.616 20.1604 203.894 20.4379 203.894 20.7806V24.8209C203.894 25.1636 203.616 25.4412 203.273 25.4412H187.75C187.407 25.4412 187.13 25.1636 187.13 24.8209Z" fill="#231F20"/>
<path d="M40.3755 10.5487L34.0868 1.75287C33.9179 1.51635 33.6456 1.37636 33.355 1.37636H29.07C28.7273 1.37636 28.4498 1.6544 28.4498 1.99664V24.8209C28.4498 25.1636 28.7273 25.4412 29.07 25.4412H33.7798C34.122 25.4412 34.4001 25.1636 34.4001 24.8209V12.3347L39.8407 20.2965C40.0926 20.6658 40.6415 20.6547 40.8785 20.2757L45.9092 12.2368V24.8209C45.9092 25.1636 46.1868 25.4412 46.5295 25.4412H51.3025C51.6452 25.4412 51.9228 25.1636 51.9228 24.8209V1.99664C51.9228 1.6544 51.6452 1.37636 51.3025 1.37636H47.0339C46.7347 1.37636 46.4552 1.52504 46.2881 1.77315L40.3755 10.5487Z" fill="#231F20"/>
<path d="M70.5601 13.9441L61.5335 1.62978C61.4167 1.47049 61.2309 1.37636 61.0334 1.37636H56.1789C55.8361 1.37636 55.5586 1.65392 55.5586 1.99664V24.8209C55.5586 25.1631 55.8361 25.4412 56.1789 25.4412H60.92C61.2627 25.4412 61.5403 25.1631 61.5403 24.8209V12.4125L70.9178 25.1877C71.0346 25.347 71.2205 25.4412 71.4179 25.4412H75.9215C76.2642 25.4412 76.5418 25.1631 76.5418 24.8209V1.99664C76.5418 1.65392 76.2642 1.37636 75.9215 1.37636H71.1804C70.8377 1.37636 70.5601 1.65392 70.5601 1.99664V13.9441Z" fill="#231F20"/>
<path d="M81.6157 25.4412H86.4205C86.7633 25.4412 87.0413 25.1636 87.0413 24.8209V1.99664C87.0413 1.65392 86.7633 1.37636 86.4205 1.37636H81.8831C81.3927 1.37636 80.9954 1.77363 80.9954 2.26406V24.8209C80.9954 25.1636 81.273 25.4412 81.6157 25.4412Z" fill="#231F20"/>
</svg>
